<svg xmlns="http://www.w3.org/2000/svg" width="23.265" height="18.357" viewBox="0 0 23.265 18.357">
  <path id="_001-mail_inbox_app" data-name="001-mail inbox app" d="M17.812,72.357H5.453A5.459,5.459,0,0,1,0,66.9V59.453A5.459,5.459,0,0,1,5.453,54H17.812a5.459,5.459,0,0,1,5.453,5.453V66.9A5.459,5.459,0,0,1,17.812,72.357ZM5.453,55.818a3.639,3.639,0,0,0-3.635,3.635V66.9A3.639,3.639,0,0,0,5.453,70.54H17.812A3.639,3.639,0,0,0,21.447,66.9V59.453a3.639,3.639,0,0,0-3.635-3.635Zm9.51,8.97,4.492-3.431a.909.909,0,0,0-1.1-1.444L13.86,63.343a3.644,3.644,0,0,1-4.406,0L5.1,59.962A.909.909,0,0,0,3.986,61.4l4.356,3.386.007.005a5.466,5.466,0,0,0,6.614,0Z" transform="translate(0 -54)" fill="#949494"/>
</svg>
