<svg id="_001-world-wide-web" data-name="001-world-wide-web" xmlns="http://www.w3.org/2000/svg" width="22" height="22" viewBox="0 0 22 22">
  <g id="Group_131" data-name="Group 131" transform="translate(1.181 9.228)">
    <g id="Group_130" data-name="Group 130">
      <path id="Path_210" data-name="Path 210" d="M49.282,211.062a.686.686,0,0,0-.878.254l-.758,1.33-.73-1.323a.684.684,0,0,0-1.166,0l-.721,1.306-.721-1.306a.665.665,0,0,0-.623-.325l-.039,0a.639.639,0,0,0-.592.445.6.6,0,0,0-.341-.386.685.685,0,0,0-.874.264l-.721,1.306-.72-1.306a.684.684,0,0,0-1.166,0l-.72,1.306-.72-1.306a.685.685,0,0,0-.874-.264.6.6,0,0,0-.341.386.639.639,0,0,0-.592-.445l-.039,0a.665.665,0,0,0-.623.325l-.721,1.306-.72-1.306a.684.684,0,0,0-1.166,0l-.73,1.323-.758-1.33a.686.686,0,0,0-.878-.254.565.565,0,0,0-.28.8l1.347,2.362a.684.684,0,0,0,1.162-.007l.72-1.306.721,1.306a.684.684,0,0,0,1.166,0l1.214-2.2a.579.579,0,0,0,.178-.281.559.559,0,0,0,.049.119l1.3,2.362a.684.684,0,0,0,1.166,0l.72-1.306.72,1.306a.684.684,0,0,0,1.166,0l1.3-2.362a.558.558,0,0,0,.049-.119.578.578,0,0,0,.178.281l1.214,2.2a.684.684,0,0,0,1.166,0l.721-1.306.721,1.306a.684.684,0,0,0,1.162.007l1.347-2.362A.565.565,0,0,0,49.282,211.062Z" transform="translate(-29.997 -210.996)" fill="#b2b2b2"/>
    </g>
  </g>
  <g id="Group_133" data-name="Group 133">
    <g id="Group_132" data-name="Group 132">
      <path id="Path_211" data-name="Path 211" d="M21.185,6.846a11,11,0,0,0-20.37,0A1.932,1.932,0,0,0,0,8.422v5.156a1.932,1.932,0,0,0,.815,1.576,11,11,0,0,0,20.37,0A1.932,1.932,0,0,0,22,13.578V8.422A1.932,1.932,0,0,0,21.185,6.846ZM19.6,6.488H16.3a12.375,12.375,0,0,0-1.862-4.394q-.085-.118-.173-.23A9.828,9.828,0,0,1,19.6,6.488ZM11.645,1.4c1.764.592,2.866,3.262,3.329,5.091H11.645Zm-1.289,0V6.488H7.026a10.8,10.8,0,0,1,1.581-3.64A3.856,3.856,0,0,1,10.355,1.4Zm-2.621.468q-.087.112-.173.23A12.374,12.374,0,0,0,5.7,6.488H2.4A9.828,9.828,0,0,1,7.734,1.865ZM2.4,15.512H5.7a12.126,12.126,0,0,0,2.035,4.624A9.828,9.828,0,0,1,2.4,15.512ZM10.355,20.6c-1.764-.592-2.867-3.262-3.33-5.091h3.33Zm1.289,0V15.5h3.33C14.51,17.335,13.4,20.012,11.645,20.6Zm2.621-.468A12.163,12.163,0,0,0,16.3,15.5h3.3A9.844,9.844,0,0,1,14.266,20.135Zm6.445-6.557a.645.645,0,0,1-.645.645H1.934a.645.645,0,0,1-.645-.645V8.422a.645.645,0,0,1,.645-.645H20.066a.645.645,0,0,1,.645.645Z" fill="#b2b2b2"/>
    </g>
  </g>
</svg>
