<svg xmlns="http://www.w3.org/2000/svg" width="20.167" height="31.289" viewBox="0 0 20.167 31.289">
  <g id="_001-tag" data-name="001-tag" transform="translate(0 0)">
    <path id="Path_4" data-name="Path 4" d="M93.75,31.289h14.667a2.753,2.753,0,0,0,2.75-2.75V10.686a4.553,4.553,0,0,0-1.342-3.241l-6.8-6.654A2.727,2.727,0,0,0,101.083,0h-5.5a4.58,4.58,0,0,0-3.418,7.633A4.549,4.549,0,0,0,91,10.686V28.539A2.753,2.753,0,0,0,93.75,31.289ZM108.531,8.744a2.732,2.732,0,0,1,.8,1.941V28.539a.918.918,0,0,1-.917.917H93.75a.918.918,0,0,1-.917-.917V10.686a2.732,2.732,0,0,1,.8-1.941l.009-.009a4.546,4.546,0,0,0,1.939.431h2.908a2.75,2.75,0,1,0,2.592-1.833h-5.5a2.756,2.756,0,0,1-.465-.04l5.317-5.2a.944.944,0,0,1,1.3,0ZM102,10.083a.917.917,0,1,1-.917-.917A.918.918,0,0,1,102,10.083Zm-6.417-8.25h2.494L93.47,6.341a2.748,2.748,0,0,1,2.113-4.508Z" transform="translate(-91 0)" fill="#848484"/>
    <path id="Path_5" data-name="Path 5" d="M189.25,391h-7.333a.917.917,0,1,0,0,1.833h7.333a.917.917,0,1,0,0-1.833Z" transform="translate(-175.5 -367.105)" fill="#848484"/>
    <path id="Path_6" data-name="Path 6" d="M181,331.917a.917.917,0,0,0,.917.917h7.333a.917.917,0,0,0,0-1.833h-7.333A.917.917,0,0,0,181,331.917Z" transform="translate(-175.5 -310.772)" fill="#848484"/>
  </g>
</svg>
