<svg xmlns="http://www.w3.org/2000/svg" width="18.213" height="25.756" viewBox="0 0 18.213 25.756">
  <path id="_002-tag-1" data-name="002-tag-1" d="M16.189,31.755a2.035,2.035,0,0,1-.911-.215L9.107,28.45,2.935,31.539A2.024,2.024,0,0,1,0,29.729V9.036A3.036,3.036,0,0,1,3.036,6H15.177a3.035,3.035,0,0,1,3.036,3.036V29.729a2.024,2.024,0,0,1-2.024,2.024ZM9.107,26.429a2.023,2.023,0,0,1,.9.211l6.178,3.091V9.036a1.012,1.012,0,0,0-1.012-1.012H3.036A1.012,1.012,0,0,0,2.024,9.036V29.729L8.2,26.64a2.026,2.026,0,0,1,.906-.212Zm0,0" transform="translate(0 -6)" fill="#848484"/>
</svg>
