<svg xmlns="http://www.w3.org/2000/svg" width="40" height="40.113" viewBox="0 0 40 40.113">
  <g id="_002-tshirt" data-name="002-tshirt" transform="translate(-0.725)">
    <path id="Path_486" data-name="Path 486" d="M35.915,4.863,27.589.152A1.172,1.172,0,0,0,27.012,0H14.087a1.172,1.172,0,0,0-.59.159L5.435,4.853a9.509,9.509,0,0,0-4.71,8.191V21.3A1.172,1.172,0,0,0,1.9,22.468H7.433V38.941A1.172,1.172,0,0,0,8.6,40.113H32.5a1.172,1.172,0,0,0,1.172-1.172V22.468h5.877A1.172,1.172,0,0,0,40.725,21.3V13.112a9.493,9.493,0,0,0-4.81-8.249Zm-10.2-2.519a5.332,5.332,0,0,1-5.163,4.184,5.241,5.241,0,0,1-3.565-1.4,5.358,5.358,0,0,1-1.6-2.786Zm5.62,35.426H9.777V33.737H31.332Zm7.049-17.645H33.676V15.678a1.172,1.172,0,1,0-2.344,0V31.393H9.777V15.678a1.172,1.172,0,0,0-2.344,0v4.447H3.069V13.044A7.157,7.157,0,0,1,6.614,6.878l6.538-3.806a7.7,7.7,0,0,0,2.243,3.778A7.587,7.587,0,0,0,25.754,6.8a7.691,7.691,0,0,0,2.2-3.754L34.76,6.9a7.146,7.146,0,0,1,3.621,6.209v7.013Z" transform="translate(0 0)" fill="#575757"/>
    <path id="Path_487" data-name="Path 487" d="M228.11,203.013h-1.338a1.172,1.172,0,1,0,0,2.344h.166v5.156a1.172,1.172,0,0,0,2.344,0v-6.328A1.172,1.172,0,0,0,228.11,203.013Z" transform="translate(-207.307 -187.153)" fill="#575757"/>
  </g>
</svg>
