<svg xmlns="http://www.w3.org/2000/svg" width="23.265" height="23.263" viewBox="0 0 23.265 23.263">
  <path id="_002-speech_bubble" data-name="002-speech bubble" d="M.909,23.286A.909.909,0,0,1,0,22.377V11.764A11.637,11.637,0,1,1,11.577,23.286a11.49,11.49,0,0,1-5.2-1.221,4.026,4.026,0,0,0-4.653.777l-.178.178a.909.909,0,0,1-.643.266ZM4.6,19.826a5.782,5.782,0,0,1,2.6.614,9.692,9.692,0,0,0,4.391,1.028c8.686.013,13.138-10.6,7.02-16.735a9.842,9.842,0,0,0-16.79,7.018s0,.006,0,.009v8.772A5.855,5.855,0,0,1,4.6,19.826Zm4.3-8.171a1.136,1.136,0,1,1-1.136-1.136A1.136,1.136,0,0,1,8.905,11.655Zm2.771-1.136a1.136,1.136,0,1,0,1.136,1.136A1.136,1.136,0,0,0,11.677,10.519Zm3.907,0a1.136,1.136,0,1,0,1.136,1.136A1.136,1.136,0,0,0,15.584,10.519Z" transform="translate(0 -0.023)" fill="#949494"/>
</svg>
