<svg id="_003-location-1" data-name="003-location-1" xmlns="http://www.w3.org/2000/svg" width="22" height="22" viewBox="0 0 22 22">
  <g id="Group_162" data-name="Group 162" transform="translate(0)">
    <g id="Group_161" data-name="Group 161">
      <path id="Path_449" data-name="Path 449" d="M46.179,14.536c2.664-3.674,2.329-3.215,2.406-3.311a6.472,6.472,0,0,0,1.482-4.092C50.067,3.222,46.456,0,42,0s-8.067,3.215-8.067,7.133a6.513,6.513,0,0,0,1.525,4.144l2.363,3.259c-2.526.341-6.821,1.358-6.821,3.6,0,.816.606,1.979,3.494,2.886A26.092,26.092,0,0,0,42,22c5.281,0,11-1.309,11-3.867C53,15.893,48.71,14.878,46.179,14.536Zm-9.5-3.968-.025-.033a5.326,5.326,0,0,1-1.258-3.4c0-3.223,2.953-5.844,6.6-5.844s6.6,2.621,6.6,5.844a5.291,5.291,0,0,1-1.2,3.337c-.071.082.3-.421-5.4,7.43ZM42,20.711c-5.769,0-9.533-1.49-9.533-2.578,0-.731,1.934-1.933,6.221-2.4l2.694,3.715a.79.79,0,0,0,1.237,0l2.694-3.715c4.287.469,6.221,1.671,6.221,2.4C51.533,19.211,47.8,20.711,42,20.711Z" transform="translate(-31 0)" fill="#575757"/>
    </g>
  </g>
  <g id="Group_164" data-name="Group 164" transform="translate(7.333 3.91)">
    <g id="Group_163" data-name="Group 163">
      <path id="Path_450" data-name="Path 450" d="M184.667,91a3.25,3.25,0,1,0,3.667,3.223A3.47,3.47,0,0,0,184.667,91Zm0,5.156a1.95,1.95,0,1,1,2.2-1.934A2.082,2.082,0,0,1,184.667,96.156Z" transform="translate(-181 -91)" fill="#575757"/>
    </g>
  </g>
</svg>
