<svg id="_003-phone-call" data-name="003-phone-call" xmlns="http://www.w3.org/2000/svg" width="22.499" height="22.499" viewBox="0 0 22.499 22.499">
  <g id="Group_11" data-name="Group 11">
    <path id="Path_18" data-name="Path 18" d="M20.723,14.814a12.863,12.863,0,0,1-4.036-.642,1.729,1.729,0,0,0-1.756.372l-2.554,1.929a14.267,14.267,0,0,1-6.35-6.348L7.9,7.631a1.792,1.792,0,0,0,.439-1.812A12.858,12.858,0,0,1,7.7,1.776,1.778,1.778,0,0,0,5.921,0H1.776A1.778,1.778,0,0,0,0,1.776,20.747,20.747,0,0,0,20.723,22.5,1.778,1.778,0,0,0,22.5,20.723V16.59A1.778,1.778,0,0,0,20.723,14.814Z" fill="#848484"/>
  </g>
</svg>
