<svg xmlns="http://www.w3.org/2000/svg" width="24.073" height="40" viewBox="0 0 24.073 40">
  <path id="_003-vase" data-name="003-vase" d="M122.743,14.03a5.462,5.462,0,0,1-1.883-6.515h.906a1.832,1.832,0,0,0,1.829-1.83V1.83A1.832,1.832,0,0,0,121.766,0h-15.58a1.832,1.832,0,0,0-1.829,1.83V5.685a1.832,1.832,0,0,0,1.829,1.83h.906a5.465,5.465,0,0,1-1.883,6.515,7.752,7.752,0,0,0-3.248,5.887c-.1.989-.109.51,2.681,17.57a2.941,2.941,0,0,0,2.9,2.513H120.41a2.941,2.941,0,0,0,2.9-2.513L125.9,21.628a7.778,7.778,0,0,0-3.159-7.6ZM106.7,5.166V2.348h14.543V5.166Zm14.167,32.485H107.064c-.137-.7.015.189-.961-5.781a4.229,4.229,0,0,0,2.8,1.006,4.562,4.562,0,0,0,3.324-1.461,2.216,2.216,0,0,1,3.487,0,4.562,4.562,0,0,0,3.325,1.461,4.231,4.231,0,0,0,2.8-1.007c-.905,5.536-.864,5.347-.977,5.782Zm1.519-9.1c-1.628.7-1.882,1.973-3.346,1.973a2.281,2.281,0,0,1-1.744-.849,4.56,4.56,0,0,0-3.324-1.461,4.291,4.291,0,0,0-2.96,1.135c-.789.668-1.1,1.174-2.109,1.174-1.46,0-1.726-1.277-3.346-1.973l-1.074-6.574a5.292,5.292,0,0,0,3.728,1.5,5.229,5.229,0,0,0,3.615-1.413,3.018,3.018,0,0,1,4.293,0,5.229,5.229,0,0,0,3.615,1.413,5.355,5.355,0,0,0,3.728-1.5Zm-2.654-7.42a3.337,3.337,0,0,1-2.4-1.1,5.03,5.03,0,0,0-3.364-1.213,4.975,4.975,0,0,0-3.262,1.135c-.86.645-1.26,1.174-2.5,1.174-1.78,0-2.034-1.219-3.79-1.942a5.414,5.414,0,0,1,2.15-3.254,7.764,7.764,0,0,0,2.979-8.425H118.4a7.763,7.763,0,0,0,2.979,8.425,5.414,5.414,0,0,1,2.15,3.254C121.8,19.9,121.495,21.136,119.737,21.136Z" transform="translate(-101.932)" fill="#575757"/>
</svg>
