<svg xmlns="http://www.w3.org/2000/svg" width="23.266" height="23.284" viewBox="0 0 23.266 23.284">
  <path id="_003-telephone" data-name="003-telephone" d="M15.252,23.285C5.923,23.215-5.007,9.621,2.98,1.628c.284-.288.584-.566.893-.825A3.39,3.39,0,0,1,8.455,1l.012.012L10,2.609a3.335,3.335,0,0,1-1.1,5.417,7.344,7.344,0,0,0-1.215.6c-.847.863-1.386,2.266,1.782,5.44,1.028,1.03,2.551,2.4,3.9,2.4a2.153,2.153,0,0,0,1.534-.707,7.066,7.066,0,0,0,.562-1.164,3.328,3.328,0,0,1,5.42-1.117l1.58,1.529.011.011a3.4,3.4,0,0,1,.2,4.575c-.241.289-.5.572-.766.839a9.227,9.227,0,0,1-6.667,2.853ZM6.061,1.822a1.584,1.584,0,0,0-1.02.375c-.264.222-.522.46-.765.707C.019,7.228,2.359,13.135,6.449,17.179c4.054,4.033,9.931,6.239,14.183,1.967.229-.229.45-.471.657-.719a1.57,1.57,0,0,0-.089-2.12l-1.579-1.528-.011-.011a1.5,1.5,0,0,0-2.451.5,7.009,7.009,0,0,1-.936,1.744,3.948,3.948,0,0,1-2.848,1.268c-2,0-3.823-1.567-5.187-2.933C6.121,13.365,3.73,9.981,6.43,7.318a7.222,7.222,0,0,1,1.793-.976,1.5,1.5,0,0,0,.489-2.454L8.7,3.875l-1.537-1.6a1.558,1.558,0,0,0-1.1-.456Zm16.507,9.05a.909.909,0,0,1-.9-.828,9.076,9.076,0,0,0-8.228-8.228A.909.909,0,1,1,13.6,0a10.973,10.973,0,0,1,9.876,9.876.909.909,0,0,1-.824.987Q22.61,10.872,22.569,10.872Zm-7.085,0a.909.909,0,0,0,.575-1.15,3.679,3.679,0,0,0-2.239-2.3.909.909,0,0,0-.606,1.715,1.848,1.848,0,0,1,1.12,1.158.908.908,0,0,0,1.15.575Zm3.572-.008a.909.909,0,0,0,.771-1.029,7.325,7.325,0,0,0-6.182-6.182.909.909,0,0,0-.258,1.8,5.5,5.5,0,0,1,4.639,4.639.909.909,0,0,0,1.029.771Z" transform="translate(-0.214 -0.001)" fill="#949494"/>
</svg>
