<svg xmlns="http://www.w3.org/2000/svg" width="18.091" height="19.297" viewBox="0 0 18.091 19.297">
  <g id="_005-share-1" data-name="005-share-1" transform="translate(561 15.417)">
    <g id="Group_5" data-name="Group 5" transform="translate(-561 -15.417)">
      <path id="Path_9" data-name="Path 9" d="M30.7,12.513a3.389,3.389,0,0,0-2.728,1.378L22.647,11.17a3.392,3.392,0,0,0-.11-2.229l5.58-3.353a3.378,3.378,0,1,0-.58-.97L21.942,7.98a3.392,3.392,0,1,0,.208,4.207L27.459,14.9a3.392,3.392,0,1,0,3.24-2.386Zm0-11.382a2.261,2.261,0,1,1-2.261,2.261A2.264,2.264,0,0,1,30.7,1.131ZM19.392,12.475a2.261,2.261,0,1,1,2.261-2.261A2.264,2.264,0,0,1,19.392,12.475ZM30.7,18.166A2.261,2.261,0,1,1,32.96,15.9,2.264,2.264,0,0,1,30.7,18.166Z" transform="translate(-16)" fill="#949494"/>
    </g>
  </g>
</svg>
