<svg xmlns="http://www.w3.org/2000/svg" width="40" height="37.2" viewBox="0 0 40 37.2">
  <g id="_006-router" data-name="006-router" transform="translate(0 -17.919)">
    <path id="Path_464" data-name="Path 464" d="M193.639,89.379a5.654,5.654,0,0,0-5.188,3.4,1.172,1.172,0,1,0,2.15.934,3.311,3.311,0,0,1,6.076,0,1.172,1.172,0,1,0,2.15-.934A5.654,5.654,0,0,0,193.639,89.379Z" transform="translate(-173.639 -65.877)" fill="#575757"/>
    <path id="Path_465" data-name="Path 465" d="M115.156,28.526a1.172,1.172,0,0,0,1.361-.946,8.894,8.894,0,0,1,17.507,0,1.172,1.172,0,1,0,2.307-.415,11.238,11.238,0,0,0-22.12,0,1.172,1.172,0,0,0,.946,1.361Z" transform="translate(-105.27)" fill="#575757"/>
    <path id="Path_466" data-name="Path 466" d="M37.656,56.656h-1.8V43.531a1.172,1.172,0,0,0-2.344,0V56.656H6.489V43.531a1.172,1.172,0,0,0-2.344,0V56.656h-1.8A2.347,2.347,0,0,0,0,59V69.659A2.347,2.347,0,0,0,2.344,72H3.759V75.7A1.955,1.955,0,0,0,5.713,77.65h4.823a1.952,1.952,0,0,0,1.847-1.319L13.869,72H26.131l1.486,4.328a1.952,1.952,0,0,0,1.847,1.319h4.823A1.955,1.955,0,0,0,36.241,75.7V72h1.416A2.347,2.347,0,0,0,40,69.659V59a2.347,2.347,0,0,0-2.344-2.344Zm-27.4,18.65H6.1V72h5.288Zm23.64,0H29.743L28.609,72H33.9ZM2.344,69.659V59H37.656l0,10.659Z" transform="translate(0 -22.531)" fill="#575757"/>
    <path id="Path_467" data-name="Path 467" d="M312.8,308.581h-9.092a1.172,1.172,0,0,0,0,2.344H312.8a1.172,1.172,0,0,0,0-2.344Z" transform="translate(-278.904 -267.954)" fill="#575757"/>
    <path id="Path_468" data-name="Path 468" d="M64.271,308.581h-.019a1.172,1.172,0,0,0,0,2.344h.019a1.172,1.172,0,0,0,0-2.344Z" transform="translate(-58.152 -267.954)" fill="#575757"/>
    <path id="Path_469" data-name="Path 469" d="M122.338,308.579h-.019a1.172,1.172,0,0,0,0,2.344h.019a1.172,1.172,0,1,0,0-2.344Z" transform="translate(-111.682 -267.952)" fill="#575757"/>
    <path id="Path_470" data-name="Path 470" d="M180.411,308.581h-.019a1.171,1.171,0,0,0-1.172,1.172c0,.021,0,.042,0,.063a1.172,1.172,0,0,0,1.17,1.109h.019a1.172,1.172,0,0,0,0-2.344Z" transform="translate(-165.218 -267.954)" fill="#575757"/>
  </g>
</svg>
