<svg xmlns="http://www.w3.org/2000/svg" width="22" height="21.979" viewBox="0 0 22 21.979">
  <path id="_007-clock" data-name="007-clock" d="M11,22.228A11,11,0,1,1,18.778,3.45,11.017,11.017,0,0,1,11,22.228ZM11,1.947a9.292,9.292,0,0,0-9.281,9.281c.51,12.313,18.054,12.309,18.562,0A9.292,9.292,0,0,0,11,1.947Zm4,12.068L12.287,11.3a1.289,1.289,0,0,0-.428-1.033c0-.009,0-.018,0-.027V5.213a.859.859,0,0,0-1.719,0V10.24c0,.009,0,.018,0,.027a1.291,1.291,0,0,0,.931,2.248l2.715,2.715A.859.859,0,0,0,15,14.015Z" transform="translate(0 -0.25)" fill="#949494"/>
</svg>
