<svg xmlns="http://www.w3.org/2000/svg" width="27.767" height="40" viewBox="0 0 27.767 40">
  <path id="_009-desk-chair" data-name="009-desk-chair" d="M103.42,32.531V31.164a2.743,2.743,0,0,0-2.74-2.74H93.347v-2.83H102.8a2.351,2.351,0,0,0,2.349-2.349V20.165a2.351,2.351,0,0,0-2.1-2.335l-.94-15.619A2.352,2.352,0,0,0,99.767,0L84.6,0a2.353,2.353,0,0,0-2.345,2.206L81.3,17.829A2.351,2.351,0,0,0,79.2,20.165v3.081a2.351,2.351,0,0,0,2.349,2.349H91v2.83H83.666a2.743,2.743,0,0,0-2.74,2.74V32.53a3.836,3.836,0,1,0,2.349-.016h0v-1.35a.392.392,0,0,1,.391-.391H91v1.75a3.836,3.836,0,1,0,2.349,0v-1.75h7.333a.392.392,0,0,1,.391.391v1.35h0a3.837,3.837,0,1,0,2.349.017ZM83.613,36.169a1.488,1.488,0,1,1-1.488-1.482A1.487,1.487,0,0,1,83.613,36.169ZM84.6,2.349l15.165,0,.931,15.464H83.656Zm9.06,33.821a1.488,1.488,0,1,1-1.487-1.482,1.486,1.486,0,0,1,1.487,1.482ZM81.544,23.245V20.165H102.8v3.081ZM102.22,37.651a1.482,1.482,0,1,1,1.488-1.482A1.487,1.487,0,0,1,102.22,37.651Z" transform="translate(-78.289)" fill="#575757"/>
</svg>
