<svg xmlns="http://www.w3.org/2000/svg" width="30.469" height="40" viewBox="0 0 30.469 40">
  <g id="_010-washing-machine" data-name="010-washing-machine" transform="translate(-61)">
    <path id="Path_476" data-name="Path 476" d="M88.734,0h-25A2.737,2.737,0,0,0,61,2.734V37.266A2.737,2.737,0,0,0,63.734,40h25a2.737,2.737,0,0,0,2.734-2.734V2.734A2.737,2.737,0,0,0,88.734,0ZM63.344,2.734a.391.391,0,0,1,.391-.391h25a.391.391,0,0,1,.391.391V9.453H63.344ZM89.125,37.266a.391.391,0,0,1-.391.391h-25a.391.391,0,0,1-.391-.391V11.8H89.125Z" fill="#575757"/>
    <path id="Path_477" data-name="Path 477" d="M236.784,60.5h-1a1.172,1.172,0,1,0,0,2.344h1a1.172,1.172,0,1,0,0-2.344Z" transform="translate(-160.051 -55.775)" fill="#575757"/>
    <path id="Path_478" data-name="Path 478" d="M329.553,60.5h-1a1.172,1.172,0,0,0,0,2.344h1a1.172,1.172,0,0,0,0-2.344Z" transform="translate(-245.573 -55.775)" fill="#575757"/>
    <path id="Path_479" data-name="Path 479" d="M144.017,60.5h-1a1.172,1.172,0,0,0,0,2.344h1a1.172,1.172,0,0,0,0-2.344Z" transform="translate(-74.532 -55.775)" fill="#575757"/>
    <path id="Path_480" data-name="Path 480" d="M131.29,202.358a10.569,10.569,0,1,0-10.569-10.569A10.581,10.581,0,0,0,131.29,202.358Zm0-18.794a8.225,8.225,0,1,1-8.225,8.225A8.234,8.234,0,0,1,131.29,183.565Z" transform="translate(-55.055 -167.063)" fill="#575757"/>
    <path id="Path_481" data-name="Path 481" d="M186.6,252.983a5.881,5.881,0,1,0-5.881-5.881A5.888,5.888,0,0,0,186.6,252.983Zm0-9.419a3.537,3.537,0,1,1-3.537,3.537A3.541,3.541,0,0,1,186.6,243.565Z" transform="translate(-110.368 -222.376)" fill="#575757"/>
  </g>
</svg>
