<svg id="_011-bedside-table" data-name="011-bedside-table" xmlns="http://www.w3.org/2000/svg" width="40" height="40" viewBox="0 0 40 40">
  <path id="Path_482" data-name="Path 482" d="M224.339,138.26h2.786a1.172,1.172,0,0,0,0-2.344h-2.786a1.172,1.172,0,0,0,0,2.344Z" transform="translate(-205.732 -125.298)" fill="#575757"/>
  <path id="Path_483" data-name="Path 483" d="M227.125,257.051h-2.786a1.172,1.172,0,1,0,0,2.344h2.786a1.172,1.172,0,0,0,0-2.344Z" transform="translate(-205.732 -236.969)" fill="#575757"/>
  <path id="Path_484" data-name="Path 484" d="M38.047,0H1.953A1.955,1.955,0,0,0,0,1.953V38.047A1.955,1.955,0,0,0,1.953,40h4a1.955,1.955,0,0,0,1.953-1.953V27.152H32.094V38.047A1.955,1.955,0,0,0,34.047,40h4A1.955,1.955,0,0,0,40,38.047V1.953A1.955,1.955,0,0,0,38.047,0ZM2.344,2.344H37.656V5.892H2.344Zm29.751,13H7.906V8.236H32.094v7.109ZM5.562,37.656H2.344V8.236H5.562ZM7.906,24.809V17.7H32.094v7.109ZM37.656,37.656H34.438V8.236h3.218Z" fill="#575757"/>
</svg>
