<svg id="_012-user" data-name="012-user" xmlns="http://www.w3.org/2000/svg" width="22" height="24" viewBox="0 0 22 24">
  <g id="Group_145" data-name="Group 145" transform="translate(0 14.531)">
    <path id="Path_391" data-name="Path 391" d="M79.883,319.469a1.039,1.039,0,0,1-1.117-.937c0-3.67-3.557-6.656-7.929-6.656H69.162c-4.372,0-7.929,2.986-7.929,6.656a1.134,1.134,0,0,1-2.234,0c0-4.7,4.559-8.531,10.162-8.531h1.675c5.6,0,10.162,3.827,10.162,8.531A1.039,1.039,0,0,1,79.883,319.469Z" transform="translate(-59 -310)" fill="#949494"/>
  </g>
  <g id="Group_146" data-name="Group 146" transform="translate(3.35)">
    <path id="Path_392" data-name="Path 392" d="M126.538,12.656c-4.157,0-7.538-2.839-7.538-6.328S122.382,0,126.538,0s7.538,2.839,7.538,6.328S130.695,12.656,126.538,12.656Zm0-10.781c-2.925,0-5.3,2-5.3,4.453s2.38,4.453,5.3,4.453,5.3-2,5.3-4.453S129.463,1.875,126.538,1.875Z" transform="translate(-119 0)" fill="#949494"/>
  </g>
</svg>
