<svg xmlns="http://www.w3.org/2000/svg" width="23.265" height="23.264" viewBox="0 0 23.265 23.264">
  <path id="_013-news" data-name="013-news" d="M17.812,23.271H5.453A5.459,5.459,0,0,1,0,17.819V12.366A4.536,4.536,0,0,1,3.59,7.913V5.46A5.459,5.459,0,0,1,9.042.007h8.77A5.459,5.459,0,0,1,23.264,5.46V17.819A5.459,5.459,0,0,1,17.812,23.271ZM3.59,9.795a2.691,2.691,0,0,0-1.772,2.571v5.453a3.639,3.639,0,0,0,3.635,3.635H17.812a3.639,3.639,0,0,0,3.635-3.635V5.46a3.639,3.639,0,0,0-3.635-3.635H9.042A3.639,3.639,0,0,0,5.407,5.46V18A.909.909,0,0,1,3.59,18Zm16.04-3.926a.909.909,0,0,0-.909-.909H8.134a.909.909,0,0,0,0,1.818H18.721A.909.909,0,0,0,19.629,5.869Zm.045,8.5a.909.909,0,0,0-.909-.909H15.222a.909.909,0,0,0,0,1.818h3.544A.909.909,0,0,0,19.675,14.365Zm-7.134,0a.909.909,0,0,0-.909-.909h-3.5a.909.909,0,0,0,0,1.818h3.5A.909.909,0,0,0,12.541,14.365Zm0,3.635a.909.909,0,0,0-.909-.909h-3.5a.909.909,0,0,0,0,1.818h3.5A.909.909,0,0,0,12.541,18Zm5.271,0a.909.909,0,0,0-.909-.909H15.222a.909.909,0,0,0,0,1.818H16.9A.909.909,0,0,0,17.812,18Zm.954-6.361H12.178a.909.909,0,0,1,0-1.818h6.588A.909.909,0,0,1,18.766,11.639Zm-11.541-1A1.136,1.136,0,1,0,8.361,9.5,1.136,1.136,0,0,0,7.225,10.639Z" transform="translate(0 -0.007)" fill="#949494"/>
</svg>
