<svg xmlns="http://www.w3.org/2000/svg" width="22" height="22" viewBox="0 0 22 22">
  <path id="_017-web_browser" data-name="017-web browser" d="M18.779,18.78A11,11,0,1,1,11,0,11.016,11.016,0,0,1,18.779,18.78ZM11,1.722A9.291,9.291,0,0,0,1.721,11c.51,12.312,18.053,12.308,18.561,0A9.291,9.291,0,0,0,11,1.722ZM12.032,11a1.074,1.074,0,1,0-1.074,1.074A1.074,1.074,0,0,0,12.032,11Zm-.505-2.568a.859.859,0,0,0,0-1.215A5.779,5.779,0,0,0,8.564,5.633l-.011,0-2.206-.41a.862.862,0,0,0-1,1l.41,2.206,0,.011a5.914,5.914,0,0,0,1.586,3,.859.859,0,1,0,1.215-1.215A4.177,4.177,0,0,1,7.443,8.109l-.18-.97.97.18a4.066,4.066,0,0,1,2.079,1.114.859.859,0,0,0,1.215,0ZM14.18,10.4a.861.861,0,0,0-.605,1.469,3.859,3.859,0,0,1,1.041,1.989l.165.883-.9-.166a3.913,3.913,0,0,1-1.976-1.09.859.859,0,0,0-1.211,1.22,5.623,5.623,0,0,0,2.858,1.558l.011,0,2.134.394a.859.859,0,0,0,1-1l-.4-2.119,0-.011a5.572,5.572,0,0,0-1.516-2.875.857.857,0,0,0-.606-.25Z" transform="translate(0 -0.002)" fill="#949494"/>
</svg>
