<svg xmlns="http://www.w3.org/2000/svg" width="22" height="22" viewBox="0 0 22 22">
  <path id="_018-calendar" data-name="018-calendar" d="M6.574,13.793A1.074,1.074,0,1,1,5.5,12.719,1.074,1.074,0,0,1,6.574,13.793ZM9.2,12.719a1.074,1.074,0,1,0,1.074,1.074A1.074,1.074,0,0,0,9.2,12.719Zm3.7,0a1.074,1.074,0,1,0,1.074,1.074A1.074,1.074,0,0,0,12.891,12.719ZM5.5,16.414a1.074,1.074,0,1,0,1.074,1.074A1.074,1.074,0,0,0,5.5,16.414Zm3.7,0a1.074,1.074,0,1,0,1.074,1.074A1.074,1.074,0,0,0,9.2,16.414Zm3.7,0a1.074,1.074,0,1,0,1.074,1.074A1.074,1.074,0,0,0,12.891,16.414Zm3.7,0a1.074,1.074,0,1,0,1.074,1.074A1.074,1.074,0,0,0,16.586,16.414ZM22,9.8v7.047A5.162,5.162,0,0,1,16.844,22H5.156A5.162,5.162,0,0,1,0,16.844V9.8A5.162,5.162,0,0,1,5.156,4.641H16.844A5.162,5.162,0,0,1,22,9.8Zm-1.719,0a3.441,3.441,0,0,0-3.437-3.437H5.156A3.441,3.441,0,0,0,1.719,9.8v7.047a3.441,3.441,0,0,0,3.437,3.437H16.844a3.441,3.441,0,0,0,3.438-3.437ZM17.7,9.367H4.3a.859.859,0,0,0,0,1.719H17.7A.859.859,0,0,0,17.7,9.367ZM8.68,2.578a.859.859,0,1,1-1.719,0,.859.859,0,0,0-1.719,0,.859.859,0,1,1-1.719,0A2.578,2.578,0,0,1,8.68,2.578ZM15.984,0a2.581,2.581,0,0,0-2.578,2.578.859.859,0,1,0,1.719,0,.859.859,0,1,1,1.719,0,.859.859,0,0,0,1.719,0A2.581,2.581,0,0,0,15.984,0Zm.6,12.719a1.074,1.074,0,1,0,1.074,1.074A1.074,1.074,0,0,0,16.586,12.719Z" fill="#949494"/>
</svg>
