<svg id="_019-front_view" data-name="019-front view" xmlns="http://www.w3.org/2000/svg" width="21.529" height="21.529" viewBox="0 0 21.529 21.529">
  <path id="Path_353" data-name="Path 353" d="M16.693,5.677a.841.841,0,0,1-.576-1.453l.715-.673a.841.841,0,1,1,1.153,1.225l-.715.673a.838.838,0,0,1-.576.229Zm.728,14.389,2.615-2.593a5.079,5.079,0,0,0,1.493-3.583V5.046A5.052,5.052,0,0,0,16.483,0H7.66A5.015,5.015,0,0,0,4.107,1.463L1.493,4.056A5.079,5.079,0,0,0,0,7.639v8.844a5.052,5.052,0,0,0,5.046,5.046h8.823A5.015,5.015,0,0,0,17.422,20.066ZM16.483,1.682a3.368,3.368,0,0,1,3.364,3.364V13.89a3.386,3.386,0,0,1-1,2.388l-2.615,2.593a3.343,3.343,0,0,1-2.369.975H5.046a3.368,3.368,0,0,1-3.364-3.364V7.639a3.386,3.386,0,0,1,1-2.388L5.292,2.657A3.343,3.343,0,0,1,7.66,1.682Zm-.042,14.675V9.293a4.252,4.252,0,0,0-4.247-4.247H5.424a.841.841,0,0,0,0,1.682h6.77a2.568,2.568,0,0,1,2.565,2.565v7.064a.841.841,0,1,0,1.682,0Z" transform="translate(0 0)" fill="#949494"/>
</svg>
