<svg xmlns="http://www.w3.org/2000/svg" width="23.265" height="31.101" viewBox="0 0 23.265 31.101">
  <path id="_027-remote_control" data-name="027-remote control" d="M80.476,31.1H71.789A7.3,7.3,0,0,1,64.5,23.812V7.289A7.3,7.3,0,0,1,71.789,0h8.686a7.3,7.3,0,0,1,7.289,7.289V23.812A7.3,7.3,0,0,1,80.476,31.1ZM71.789,2.43A4.865,4.865,0,0,0,66.93,7.289V23.812a4.865,4.865,0,0,0,4.859,4.859h8.686a4.865,4.865,0,0,0,4.859-4.859V7.289A4.865,4.865,0,0,0,80.476,2.43Zm-.911,15.546A1.519,1.519,0,1,0,72.4,19.494,1.519,1.519,0,0,0,70.878,17.975Zm5.285,0a1.519,1.519,0,1,0,1.519,1.519A1.519,1.519,0,0,0,76.163,17.975Zm5.224,0a1.519,1.519,0,1,0,1.519,1.519A1.519,1.519,0,0,0,81.387,17.975ZM70.939,23.2a1.519,1.519,0,1,0,1.519,1.519A1.519,1.519,0,0,0,70.939,23.2Zm5.224,0a1.519,1.519,0,1,0,1.519,1.519A1.519,1.519,0,0,0,76.163,23.2Zm5.224,0a1.519,1.519,0,1,0,1.519,1.519A1.519,1.519,0,0,0,81.387,23.2ZM72.4,9.426A1.213,1.213,0,0,1,71.348,7.6,5.877,5.877,0,0,1,73.277,5.63a1.216,1.216,0,0,1,1.865,1.027,1.2,1.2,0,0,1-.565,1.026,3.426,3.426,0,0,0-1.143,1.158A1.207,1.207,0,0,1,72.4,9.426Zm5.229-1.743a3.426,3.426,0,0,1,1.143,1.158A1.215,1.215,0,0,0,80.854,7.6,5.877,5.877,0,0,0,78.925,5.63,1.216,1.216,0,0,0,77.06,6.657,1.2,1.2,0,0,0,77.625,7.683ZM78.71,11.9a3.426,3.426,0,0,1-1.076,1.061,1.215,1.215,0,1,0,1.284,2.062,5.877,5.877,0,0,0,1.835-1.809A1.215,1.215,0,0,0,78.71,11.9Zm-4.141,1.059A3.426,3.426,0,0,1,73.493,11.9a1.215,1.215,0,0,0-2.043,1.314,5.877,5.877,0,0,0,1.835,1.809,1.215,1.215,0,1,0,1.284-2.062Z" transform="translate(-64.5)" fill="#949494"/>
</svg>
