<svg xmlns="http://www.w3.org/2000/svg" width="22" height="24" viewBox="0 0 22 24">
  <path id="_029-find_my_gadget_app" data-name="029-find my gadget app" d="M17.4,12.121a2.208,2.208,0,0,0,1.8-.951C21.057,8.591,22,6.623,22,5.323A4.834,4.834,0,0,0,17.4.293a4.834,4.834,0,0,0-4.6,5.03c0,1.3.943,3.268,2.8,5.847A2.208,2.208,0,0,0,17.4,12.121Zm0-9.95a3.028,3.028,0,0,1,2.879,3.152c0,.633-.64,2.2-2.434,4.685a.535.535,0,0,1-.89,0c-1.795-2.488-2.434-4.052-2.434-4.685A3.028,3.028,0,0,1,17.4,2.17ZM11.166,4.929A.921.921,0,0,1,10.4,5.958c-4.864.506-7,7.116-3.529,10.86a5.675,5.675,0,0,0,9.64-2.3.841.841,0,0,1,1.1-.556.965.965,0,0,1,.509,1.206C15,23.737,3.635,21.551,3.435,12.308c-.068-4.126,3.029-7.87,6.789-8.218a.882.882,0,0,1,.942.839ZM11,11.135a1.127,1.127,0,0,1,1.074,1.173,1.078,1.078,0,1,1-2.149,0A1.127,1.127,0,0,1,11,11.135Zm10.346,5.348c-2.68,8.135-12.706,10.523-18.2,4.247C-3.4,13.463.9,1.048,10.207.324a.888.888,0,0,1,.918.87.915.915,0,0,1-.8,1c-4.8.373-8.583,4.787-8.613,10.048-.031,5.558,4.153,10.135,9.239,10.2a9.445,9.445,0,0,0,8.777-6.615.841.841,0,0,1,1.1-.554A.966.966,0,0,1,21.345,16.483ZM17.4,4.048a1.127,1.127,0,0,1,1.074,1.173,1.078,1.078,0,1,1-2.149,0A1.127,1.127,0,0,1,17.4,4.048Zm-2.5,9.807a.966.966,0,0,0-.507-1.206.841.841,0,0,0-1.1.554,2.352,2.352,0,0,1-3.988.963,2.721,2.721,0,0,1,1.165-4.416c1.1-.332.728-2.064-.392-1.828-3.132.8-4.283,5.087-1.989,7.571A3.931,3.931,0,0,0,11,16.814a4.206,4.206,0,0,0,3.9-2.959Z" transform="translate(0 -0.293)" fill="#949494"/>
</svg>
