<svg xmlns="http://www.w3.org/2000/svg" width="23.265" height="23.263" viewBox="0 0 23.265 23.263">
  <path id="_041-whatsapp" data-name="041-whatsapp" d="M.909,23.286A.909.909,0,0,1,0,22.377V11.764A11.637,11.637,0,1,1,11.577,23.286a11.491,11.491,0,0,1-5.2-1.221,4.026,4.026,0,0,0-4.653.777l-.178.178a.909.909,0,0,1-.643.266ZM4.6,19.826a5.782,5.782,0,0,1,2.6.614,9.691,9.691,0,0,0,4.382,1.028h.009c8.686.013,13.138-10.6,7.02-16.735a9.842,9.842,0,0,0-16.79,7.018s0,.006,0,.009v8.772A5.855,5.855,0,0,1,4.6,19.826Zm8.352-1.316a8.113,8.113,0,0,1-5.642-2.439l-.006-.006C4.543,13.386,3.871,8.689,6.711,5.94c.121-.12.431-.42.619-.577a2.246,2.246,0,0,1,3.04.135l.011.011,1.092,1.127A1.952,1.952,0,0,1,10.988,10a4.337,4.337,0,0,0-.543.256c-.385.408-.3.65-.25.8a3.874,3.874,0,0,0,.921,1.211,3.87,3.87,0,0,0,1.21.92c.147.051.388.135.8-.25a4.333,4.333,0,0,0,.256-.543,1.858,1.858,0,0,1,1.354-1.2,2.235,2.235,0,0,1,2.008.714L17.867,13l.011.011a2.246,2.246,0,0,1,.135,3.04c-.157.188-.456.5-.577.618a6.244,6.244,0,0,1-4.484,1.844ZM8.594,14.783c2.016,2,5.393,2.766,7.557.6.144-.144.38-.394.467-.5a.437.437,0,0,0-.022-.588L15.471,13.2l-.011-.011a.725.725,0,0,0-.348-.221.439.439,0,0,0-.048.092,3.95,3.95,0,0,1-.609,1.1,2.5,2.5,0,0,1-2.726.728,5.284,5.284,0,0,1-1.9-1.351,5.288,5.288,0,0,1-1.352-1.9,2.5,2.5,0,0,1,.728-2.726,3.946,3.946,0,0,1,1.1-.609.439.439,0,0,0,.092-.048.724.724,0,0,0-.22-.348l-.011-.011L9.082,6.781a.437.437,0,0,0-.588-.022c-.105.088-.354.323-.5.467-2.167,2.164-1.4,5.54.6,7.557Zm4.509-1.82Zm-2.689-2.689h0Z" transform="translate(0 -0.023)" fill="#949494"/>
</svg>
