<svg xmlns="http://www.w3.org/2000/svg" width="23.265" height="23.265" viewBox="0 0 23.265 23.265">
  <path id="_045-instagram" data-name="045-instagram" d="M17.812,23.265H5.453A5.459,5.459,0,0,1,0,17.812V5.453A5.459,5.459,0,0,1,5.453,0H17.812a5.459,5.459,0,0,1,5.453,5.453V17.812A5.459,5.459,0,0,1,17.812,23.265ZM5.453,1.818A3.639,3.639,0,0,0,1.818,5.453V17.812a3.639,3.639,0,0,0,3.635,3.635H17.812a3.639,3.639,0,0,0,3.635-3.635V5.453a3.639,3.639,0,0,0-3.635-3.635ZM18.039,4.09a1.136,1.136,0,1,0,1.136,1.136A1.136,1.136,0,0,0,18.039,4.09Zm-6.407,13.45a5.907,5.907,0,1,1,5.907-5.907A5.914,5.914,0,0,1,11.632,17.539Zm0-10a4.09,4.09,0,1,0,4.09,4.089A4.094,4.094,0,0,0,11.632,7.543Z" fill="#949494"/>
</svg>
