<svg xmlns="http://www.w3.org/2000/svg" width="23.266" height="23.273" viewBox="0 0 23.266 23.273">
  <path id="_060-telegram" data-name="060-telegram" d="M16.992,23.271a3.655,3.655,0,0,1-2.027-.615l-4.88-3.247a.909.909,0,0,1,1.007-1.514l4.88,3.247a1.845,1.845,0,0,0,2.841-1.228l2.7-15.942A1.845,1.845,0,0,0,18.944,1.98L3,9.111a1.844,1.844,0,0,0-.269,3.219l2.227,1.481a.909.909,0,1,1-1.007,1.514L1.721,13.843a3.671,3.671,0,0,1,.534-6.393L18.2.32a3.663,3.663,0,0,1,5.107,3.956l-2.7,15.942a3.669,3.669,0,0,1-3.614,3.053ZM8,22.364v-4.2a3.107,3.107,0,0,1,.914-2.193l8.545-8.465a.909.909,0,0,0-1.28-1.292L7.631,14.682a4.937,4.937,0,0,0-1.453,3.484v4.2a.909.909,0,1,0,1.818,0Z" transform="translate(-0.096 0)" fill="#949494"/>
</svg>
