<svg xmlns="http://www.w3.org/2000/svg" width="23.722" height="23.724" viewBox="0 0 23.722 23.724">
  <path id="filter" d="M23.3,0H1.427A.927.927,0,0,0,.5.927,9.051,9.051,0,0,0,3.535,7.686l4.059,3.607A3.3,3.3,0,0,1,8.7,13.759V22.8a.927.927,0,0,0,1.441.771l5.467-3.645a.927.927,0,0,0,.413-.771V13.759a3.3,3.3,0,0,1,1.107-2.466l4.058-3.607A9.051,9.051,0,0,0,24.222.927.927.927,0,0,0,23.3,0Zm-3.34,6.3L15.9,9.908a5.157,5.157,0,0,0-1.729,3.851v4.9l-3.614,2.409V13.759A5.157,5.157,0,0,0,8.825,9.908L4.766,6.3A7.2,7.2,0,0,1,2.413,1.853h19.9A7.2,7.2,0,0,1,19.956,6.3Zm0,0" transform="translate(-0.5 0)" fill="#707070"/>
</svg>
