<svg xmlns="http://www.w3.org/2000/svg" width="26.973" height="27.086" viewBox="0 0 26.973 27.086">
  <g id="google" transform="translate(-2590.992 -3867.525)">
    <path id="Op_component_5" data-name="Op component 5" d="M3717.479,3754.61a13.543,13.543,0,1,1,13.486-13.543A13.53,13.53,0,0,1,3717.479,3754.61Zm0-26a12.456,12.456,0,1,0,12.4,12.455A12.444,12.444,0,0,0,3717.479,3728.612Z" transform="translate(-1113 140)" fill="#4d4d4d"/>
    <path id="Op_component_6" data-name="Op component 6" d="M3719.1,3740.729h-5.229l.006,1.5h3.527a3.465,3.465,0,0,1-3.431,2.955,4.12,4.12,0,1,1,2.79-7.141l1.156-1a5.635,5.635,0,1,0-3.946,9.67,5.107,5.107,0,0,0,5.138-5.4Z" transform="translate(-1113 140)" fill="#4d4d4d"/>
  </g>
</svg>
