<svg xmlns="http://www.w3.org/2000/svg" width="26.971" height="27.086" viewBox="0 0 26.971 27.086">
  <g id="Group_206" data-name="Group 206" transform="translate(-2625.948 -3867.525)">
    <path id="Op_component_12" data-name="Op component 12" d="M3752.435,3754.61a13.543,13.543,0,1,1,13.485-13.543A13.53,13.53,0,0,1,3752.435,3754.61Zm0-26a12.456,12.456,0,1,0,12.4,12.455A12.443,12.443,0,0,0,3752.435,3728.612Z" transform="translate(-1113 140)" fill="#4d4d4d"/>
    <path id="Op_component_13" data-name="Op component 13" d="M3750.462,3748.926h3.151V3741h2.2l.234-2.653h-2.433v-1.511c0-.625.125-.873.728-.873h1.705v-2.753h-2.181c-2.346,0-3.4,1.037-3.4,3.022v2.115h-1.639v2.686h1.639Z" transform="translate(-1113 140)" fill="#4d4d4d"/>
  </g>
</svg>
