<svg id="Group_114" data-name="Group 114" xmlns="http://www.w3.org/2000/svg" width="20.615" height="20.615" viewBox="0 0 20.615 20.615">
  <path id="Path_18" data-name="Path 18" d="M1.628,13.574a11.786,11.786,0,0,0,3.7-.588,1.584,1.584,0,0,1,1.609.341l2.34,1.767a13.073,13.073,0,0,0,5.818-5.817l-1.72-2.285a1.642,1.642,0,0,1-.4-1.66,11.781,11.781,0,0,0,.592-3.7A1.629,1.629,0,0,1,15.19,0h3.8a1.629,1.629,0,0,1,1.628,1.628A19.01,19.01,0,0,1,1.628,20.615,1.629,1.629,0,0,1,0,18.988V15.2A1.629,1.629,0,0,1,1.628,13.574Z" transform="translate(0 0)" fill="#e3e3e3"/>
</svg>
