<svg id="Group_70" data-name="Group 70" xmlns="http://www.w3.org/2000/svg" width="20.479" height="20.471" viewBox="0 0 20.479 20.471">
  <g id="Path_29" data-name="Path 29" fill="none">
    <path d="M8,0a8,8,0,1,0,8,8A8,8,0,0,0,8,0Z" stroke="none"/>
    <path d="M 8 2 C 4.691590309143066 2 2 4.691590309143066 2 8 C 2 11.30841064453125 4.691590309143066 14 8 14 C 11.30841064453125 14 14 11.30841064453125 14 8 C 14 4.691590309143066 11.30841064453125 2 8 2 M 8 0 C 12.41827964782715 0 16 3.581720352172852 16 8 C 16 12.41827964782715 12.41827964782715 16 8 16 C 3.581720352172852 16 0 12.41827964782715 0 8 C 0 3.581720352172852 3.581720352172852 0 8 0 Z" stroke="none" fill="#707070"/>
  </g>
  <path id="Path_28" data-name="Path 28" d="M-88.077,38.063l5.994,5.994" transform="translate(101.149 -25)" fill="none" stroke="#707070" stroke-linecap="round" stroke-width="2"/>
</svg>
