<svg xmlns="http://www.w3.org/2000/svg" width="20" height="20" viewBox="0 0 20 20">
  <g id="heart" transform="translate(-78.677 -23.266)">
    <g id="_006-heart-shape-outline" data-name="006-heart-shape-outline" transform="translate(78.677 23.266)">
      <path id="Path_10" data-name="Path 10" d="M18.583,38.16a4.94,4.94,0,0,0-3.918-1.615,3.88,3.88,0,0,0-1.412.28,5.406,5.406,0,0,0-1.339.755q-.62.475-1.066.892a11.055,11.055,0,0,0-.848.885,11.069,11.069,0,0,0-.848-.885q-.447-.417-1.066-.892a5.413,5.413,0,0,0-1.339-.755,3.881,3.881,0,0,0-1.412-.28A4.94,4.94,0,0,0,1.417,38.16,7.313,7.313,0,0,0,.262,44.435a8.592,8.592,0,0,0,.6,1.576,11.729,11.729,0,0,0,.759,1.269q.424.618.619.853a4.008,4.008,0,0,0,.307.339L9.509,56.31a.631.631,0,0,0,.982,0L17.444,48.5A9.1,9.1,0,0,0,20,42.638,6.559,6.559,0,0,0,18.583,38.16Zm-2.109,9.114L10,54.552,3.516,47.261a7.291,7.291,0,0,1-2.087-4.622,6.551,6.551,0,0,1,.24-1.862,3.834,3.834,0,0,1,.614-1.283,3.021,3.021,0,0,1,.91-.775,3.644,3.644,0,0,1,1.049-.4,5.5,5.5,0,0,1,1.094-.1,2.831,2.831,0,0,1,1.25.332,5.575,5.575,0,0,1,1.233.833q.564.5.966.938a9.592,9.592,0,0,1,.67.8.665.665,0,0,0,1.094,0,9.564,9.564,0,0,1,.67-.8q.4-.436.965-.938a5.573,5.573,0,0,1,1.233-.833,2.831,2.831,0,0,1,1.25-.332,5.5,5.5,0,0,1,1.094.1,3.64,3.64,0,0,1,1.049.4,3.021,3.021,0,0,1,.91.775,3.834,3.834,0,0,1,.614,1.283,6.557,6.557,0,0,1,.24,1.862A7.321,7.321,0,0,1,16.473,47.274Z" transform="translate(0 -36.545)" fill="#949494"/>
    </g>
  </g>
</svg>
