<svg xmlns="http://www.w3.org/2000/svg" width="26.972" height="27.086" viewBox="0 0 26.972 27.086">
  <g id="linkdin" transform="translate(-2522.956 -3867.525)">
    <path id="Op_component_8" data-name="Op component 8" d="M3649.441,3754.61a13.543,13.543,0,1,1,13.487-13.543A13.529,13.529,0,0,1,3649.441,3754.61Zm0-26a12.456,12.456,0,1,0,12.4,12.455A12.444,12.444,0,0,0,3649.441,3728.612Z" transform="translate(-1113 140)" fill="#4d4d4d"/>
    <rect id="Op_component_9" data-name="Op component 9" width="2.68" height="8.69" transform="translate(2530.57 3878.17)" fill="#4d4d4d"/>
    <ellipse id="Op_component_10" data-name="Op component 10" cx="1.58" cy="1.6" rx="1.58" ry="1.6" transform="translate(2530.32 3873.83)" fill="#4d4d4d"/>
    <path id="Op_component_11" data-name="Op component 11" d="M3650.533,3742.3c0-1.221.559-1.95,1.632-1.95.985,0,1.459.7,1.459,1.95v4.562h2.666v-5.5c0-2.328-1.315-3.454-3.149-3.454a3.015,3.015,0,0,0-2.608,1.437v-1.171h-2.57v8.691h2.57Z" transform="translate(-1113 140)" fill="#4d4d4d"/>
  </g>
</svg>
