<svg xmlns="http://www.w3.org/2000/svg" xmlns:xlink="http://www.w3.org/1999/xlink" width="19" height="21" viewBox="0 0 19 21">
  <defs>
    <linearGradient id="linear-gradient" x1="-14.453" y1="0.5" x2="-13.453" y2="0.5" gradientUnits="objectBoundingBox">
      <stop offset="0.237" stop-color="#9f0010"/>
      <stop offset="0.394" stop-color="#ac0011"/>
      <stop offset="0.685" stop-color="#ce0016"/>
      <stop offset="0.852" stop-color="#e50019"/>
    </linearGradient>
  </defs>
  <g id="rashinLogo" transform="translate(-78.084 -8.202)">
    <g id="Layer_1" data-name="Layer 1">
      <g id="Group_1" data-name="Group 1">
        <path id="Path_1" data-name="Path 1" d="M88.834,29.2H78.084l1.158-4.186A3.952,3.952,0,0,1,83.015,22.2l5.4.005a2.159,2.159,0,0,0,2.155-1.573L93.639,9.6H86.513a1.945,1.945,0,0,0-1.943,1.416l-1.947,7h7.231l-.387,1.4H80.79l2.336-8.4A3.951,3.951,0,0,1,86.9,8.2h8.572L92.013,20.638a4.173,4.173,0,0,1-3.986,2.969l-5.4-.005a1.945,1.945,0,0,0-1.943,1.416L79.914,27.8h9.307c1.681,0,3.82-.488,4.467-2.813l1.564-5.624H93.731l.387-1.4h2.966L95.13,24.994C94.4,27.629,92.044,29.2,88.834,29.2Z" fill="#464749"/>
        <path id="Path_2" data-name="Path 2" d="M85.68,10.886h6.126l-1.642,5.933Z" fill="url(#linear-gradient)"/>
      </g>
    </g>
  </g>
</svg>
