<svg xmlns="http://www.w3.org/2000/svg" width="197.924" height="27.085" viewBox="0 0 197.924 27.085">
  <path id="Shape_1285_copy" data-name="Shape 1285 copy" d="M3738.949,3741.068a13.486,13.486,0,1,1,13.486,13.543A13.53,13.53,0,0,1,3738.949,3741.068Zm1.082,0a12.4,12.4,0,1,0,12.4-12.456A12.442,12.442,0,0,0,3740.031,3741.068Zm-36.038,0a13.487,13.487,0,1,1,13.486,13.543A13.53,13.53,0,0,1,3703.992,3741.068Zm1.084,0a12.4,12.4,0,1,0,12.4-12.456A12.442,12.442,0,0,0,3705.076,3741.068Zm-35.745,0a13.486,13.486,0,1,1,13.486,13.543A13.53,13.53,0,0,1,3669.331,3741.068Zm1.082,0a12.4,12.4,0,1,0,12.4-12.456A12.443,12.443,0,0,0,3670.413,3741.068Zm-34.457,0a13.486,13.486,0,1,1,13.485,13.543A13.529,13.529,0,0,1,3635.956,3741.068Zm1.082,0a12.4,12.4,0,1,0,12.4-12.456A12.443,12.443,0,0,0,3637.038,3741.068Zm-35.062,0a13.487,13.487,0,1,1,13.486,13.543A13.53,13.53,0,0,1,3601.976,3741.068Zm1.083,0a12.4,12.4,0,1,0,12.4-12.456A12.442,12.442,0,0,0,3603.059,3741.068Zm-35.063,0a13.487,13.487,0,1,1,13.487,13.543A13.531,13.531,0,0,1,3568,3741.068Zm1.083,0a12.4,12.4,0,1,0,12.4-12.456A12.444,12.444,0,0,0,3569.079,3741.068Zm181.382,7.858v-7.892h-1.639v-2.685h1.639v-2.115c0-1.986,1.058-3.022,3.4-3.022h2.18v2.753h-1.7c-.6,0-.727.248-.727.873v1.511h2.432l-.233,2.653h-2.2v7.924Zm-172.375-.236a10,10,0,0,1,.026-3.369c.17-.719,1.136-4.833,1.136-4.833a3.433,3.433,0,0,1-.281-1.4c0-1.314.758-2.295,1.7-2.295a1.185,1.185,0,0,1,1.191,1.331,19.031,19.031,0,0,1-.779,3.147,1.37,1.37,0,0,0,1.393,1.708c1.673,0,2.8-2.159,2.8-4.714,0-1.944-1.3-3.4-3.676-3.4a4.19,4.19,0,0,0-4.346,4.246,2.572,2.572,0,0,0,.581,1.74.429.429,0,0,1,.129.494c-.043.163-.141.557-.181.712a.3.3,0,0,1-.441.221,3.417,3.417,0,0,1-1.81-3.388c0-2.518,2.116-5.539,6.312-5.539a5.287,5.287,0,0,1,5.59,5.081c0,3.478-1.925,6.077-4.765,6.077a2.53,2.53,0,0,1-2.156-1.1s-.513,2.043-.622,2.438a9.487,9.487,0,0,1-1.594,2.9.117.117,0,0,1-.094.046A.113.113,0,0,1,3578.086,3748.689Zm30.42-1.7a2.236,2.236,0,0,1-1.573-1.591,25.306,25.306,0,0,1,0-8.661,2.24,2.24,0,0,1,1.573-1.592,64.363,64.363,0,0,1,13.911,0,2.247,2.247,0,0,1,1.575,1.592,25.57,25.57,0,0,1,0,8.661,2.242,2.242,0,0,1-1.575,1.591,64.322,64.322,0,0,1-13.911,0Zm5.135-3.263,4.655-2.657-4.655-2.66Zm39.983,3.136V3742.3c0-1.251-.473-1.95-1.458-1.95-1.073,0-1.632.729-1.632,1.95v4.562h-2.571v-8.691h2.571v1.171a3.015,3.015,0,0,1,2.609-1.437c1.833,0,3.149,1.127,3.149,3.454v5.5Zm-10.054,0v-8.69h2.68v8.69Zm64.774-5.793a5.618,5.618,0,0,1,9.57-4.021l-1.157,1a4.112,4.112,0,1,0-2.789,7.141,3.465,3.465,0,0,0,3.431-2.956h-3.526l-.006-1.5h5.229l.01.582a5.107,5.107,0,0,1-5.138,5.4A5.636,5.636,0,0,1,3708.344,3741.068Zm-32.423,4.351a5.667,5.667,0,0,0,4.189-1.177,2.831,2.831,0,0,1-2.643-1.974,2.807,2.807,0,0,0,1.277-.049,2.839,2.839,0,0,1-2.269-2.822,2.8,2.8,0,0,0,1.281.356,2.852,2.852,0,0,1-.875-3.795,8.017,8.017,0,0,0,5.833,2.969,2.832,2.832,0,0,1,4.823-2.592,5.672,5.672,0,0,0,1.8-.69,2.838,2.838,0,0,1-1.244,1.573,5.65,5.65,0,0,0,1.626-.447,5.751,5.751,0,0,1-1.412,1.47,8.042,8.042,0,0,1-12.381,7.177Zm47.156-1.076v-2.168h-2.158v-1.384h2.158v-2.167h1.378v2.167h2.159v1.384h-2.159v2.168Zm-79.756-8.913a1.58,1.58,0,1,1,1.58,1.6A1.59,1.59,0,0,1,3643.32,3735.43Z" transform="translate(-3567.996 -3727.525)" fill="#4d4d4d"/>
</svg>
