<svg xmlns="http://www.w3.org/2000/svg" width="22" height="24" viewBox="0 0 22 24">
  <path id="star" d="M16.844,24H5.156A5.412,5.412,0,0,1,0,18.375V5.625A5.412,5.412,0,0,1,5.156,0H16.844A5.412,5.412,0,0,1,22,5.625v12.75A5.412,5.412,0,0,1,16.844,24ZM5.156,1.875a3.608,3.608,0,0,0-3.438,3.75v12.75a3.608,3.608,0,0,0,3.438,3.75H16.844a3.608,3.608,0,0,0,3.438-3.75V5.625a3.608,3.608,0,0,0-3.437-3.75Zm8.871,17.671a2.141,2.141,0,0,1-1.06-.285l-1.7-.967a.531.531,0,0,0-.529,0l-1.7.967a2.12,2.12,0,0,1-2.409-.2,2.559,2.559,0,0,1-.9-2.41L6.053,14.6a.621.621,0,0,0-.159-.523l-1.378-1.45A2.537,2.537,0,0,1,5.779,8.412l1.9-.3a.565.565,0,0,0,.423-.329l.851-1.863a2.21,2.21,0,0,1,4.086,0l.851,1.863a.565.565,0,0,0,.423.33l1.9.3a2.537,2.537,0,0,1,1.262,4.219L16.1,14.082a.621.621,0,0,0-.159.523l.325,2.048a2.559,2.559,0,0,1-.9,2.41,2.157,2.157,0,0,1-1.349.484ZM11,16.349a2.138,2.138,0,0,1,1.058.282l1.7.967a.52.52,0,0,0,.6-.049.6.6,0,0,0,.216-.576l-.325-2.048a2.6,2.6,0,0,1,.659-2.192l1.378-1.45a.61.61,0,0,0,.141-.6.561.561,0,0,0-.453-.411l-1.9-.3a2.3,2.3,0,0,1-1.716-1.349L11.5,6.758a.546.546,0,0,0-1.01,0L9.644,8.621A2.3,2.3,0,0,1,7.928,9.97l-1.9.3a.561.561,0,0,0-.453.411.609.609,0,0,0,.141.6l1.378,1.45a2.6,2.6,0,0,1,.659,2.193l-.325,2.048a.6.6,0,0,0,.216.576.52.52,0,0,0,.6.049l1.7-.967A2.138,2.138,0,0,1,11,16.349Z" fill="#949494"/>
</svg>
