<svg xmlns="http://www.w3.org/2000/svg" width="26.971" height="27.086" viewBox="0 0 26.971 27.086">
  <g id="twiter" transform="translate(-2556.331 -3867.525)">
    <path id="Op_component_3" data-name="Op component 3" d="M3682.817,3754.61a13.543,13.543,0,1,1,13.485-13.543A13.53,13.53,0,0,1,3682.817,3754.61Zm0-26a12.456,12.456,0,1,0,12.4,12.455A12.444,12.444,0,0,0,3682.817,3728.612Z" transform="translate(-1113 140)" fill="#4d4d4d"/>
    <path id="Op_component_4" data-name="Op component 4" d="M3675.92,3745.419a8.043,8.043,0,0,0,12.381-7.177,5.751,5.751,0,0,0,1.412-1.47,5.656,5.656,0,0,1-1.625.448,2.839,2.839,0,0,0,1.243-1.573,5.658,5.658,0,0,1-1.8.689,2.832,2.832,0,0,0-4.823,2.592,8.019,8.019,0,0,1-5.833-2.969,2.851,2.851,0,0,0,.876,3.795,2.8,2.8,0,0,1-1.282-.356,2.841,2.841,0,0,0,2.27,2.823,2.816,2.816,0,0,1-1.277.049,2.831,2.831,0,0,0,2.643,1.974A5.669,5.669,0,0,1,3675.92,3745.419Z" transform="translate(-1113 140)" fill="#4d4d4d"/>
  </g>
</svg>
