<svg xmlns="http://www.w3.org/2000/svg" width="26.972" height="27.086" viewBox="0 0 26.972 27.086">
  <g id="youtube" transform="translate(-2488.976 -3867.525)">
    <path id="Op_component_1" data-name="Op component 1" d="M3615.462,3754.61a13.543,13.543,0,1,1,13.486-13.543A13.53,13.53,0,0,1,3615.462,3754.61Zm0-26a12.456,12.456,0,1,0,12.4,12.455A12.444,12.444,0,0,0,3615.462,3728.612Z" transform="translate(-1113 140)" fill="#4d4d4d"/>
    <path id="Op_component_2" data-name="Op component 2" d="M3623.992,3736.737a2.245,2.245,0,0,0-1.575-1.592,64.407,64.407,0,0,0-13.912,0,2.24,2.24,0,0,0-1.573,1.592,25.34,25.34,0,0,0,0,8.661,2.237,2.237,0,0,0,1.573,1.591,64.407,64.407,0,0,0,13.912,0,2.241,2.241,0,0,0,1.575-1.591,25.538,25.538,0,0,0,0-8.661Zm-10.351,6.988v-5.316l4.654,2.659Z" transform="translate(-1113 140)" fill="#4d4d4d"/>
  </g>
</svg>
